<svg xmlns="http://www.w3.org/2000/svg" id="simbolo-bussola-social-logo-completa" width="54.441" height="54.439" viewBox="0 0 54.441 54.439"><path id="Path_591" data-name="Path 591" d="M32.926,9.606a3.857,3.857,0,1,1,3.643,4.124,3.909,3.909,0,0,1-3.643-4.124" transform="translate(10.692 1.957)" fill="#03a87d" fill-rule="evenodd"></path><path id="Path_592" data-name="Path 592" d="M52.714,17.66a1.5,1.5,0,1,0-2.807,1.055A24.233,24.233,0,0,1,27.17,51.44c-.241,0-.485,0-.729-.011A24.222,24.222,0,1,1,41.119,7.377a1.5,1.5,0,1,0,1.722-2.452A27.221,27.221,0,0,0,7.363,45.837a27.041,27.041,0,0,0,18.981,8.589c.3.009.6.013.9.013A27.234,27.234,0,0,0,52.714,17.66" transform="translate(0 0.001)" fill="#f6f8fd"></path><path id="Path_593" data-name="Path 593" d="M29.934,22.494,24.22,35.834c-7.744-.147-2.76-9.556-4.137-14.37,4.653-2.114,7.868-1.51,9.851,1.031" transform="translate(6.417 6.556)" fill="#0a8c67" fill-rule="evenodd"></path><path id="Path_594" data-name="Path 594" d="M35.895,18.243l-2.821,6.673c-7.664-2.171-23.118.942-22.986-6.586l21.042-5.156c5-1,7.154-.694,4.764,5.069" transform="translate(3.276 4.136)" fill="#03a87d" fill-rule="evenodd"></path></svg>